<?xml version="1.0" encoding="utf-8"?>
<!-- Generator: Adobe Illustrator 23.0.1, SVG Export Plug-In . SVG Version: 6.00 Build 0)  -->
<svg version="1.1" xmlns="http://www.w3.org/2000/svg" xmlns:xlink="http://www.w3.org/1999/xlink" x="0px" y="0px"
	 viewBox="0 0 500 500" enable-background="new 0 0 500 500" xml:space="preserve">
<g id="Ebene_1" display="none">
	<g display="inline">
		<rect fill="#FF5757" width="500" height="500"/>
	</g>
</g>
<g id="Ebene_2">
	<path fill="#FFFFFF" d="M465.01,316.3l-70.49-19.81l58.07-140.59c2.32-5.61-3.75-10.98-9.04-8.01l-63.85,35.84L321.36,43.26
		c-2.33-5.6-10.42-5.12-12.06,0.72l-19.81,70.49L148.91,56.41c-5.61-2.32-10.98,3.75-8.01,9.04l35.84,63.85L36.26,187.64
		c-5.6,2.33-5.12,10.42,0.72,12.06l70.49,19.81L49.41,360.09c-2.32,5.61,3.75,10.98,9.04,8.01l63.85-35.84l58.35,140.47
		c2.33,5.6,10.42,5.12,12.06-0.72l19.81-70.49l140.59,58.07c5.61,2.32,10.98-3.75,8.01-9.04l-35.84-63.85l140.47-58.35
		C471.34,326.03,470.85,317.94,465.01,316.3z M304.88,290.65c-18.03,29.76-56.78,39.26-86.53,21.22
		c-29.76-18.03-39.26-56.78-21.22-86.53s56.78-39.26,86.53-21.22S322.91,260.9,304.88,290.65z"/>
	<g>
	</g>
	<g>
	</g>
	<g>
	</g>
	<g>
	</g>
	<g>
	</g>
	<g>
	</g>
	<g>
	</g>
	<g>
	</g>
	<g>
	</g>
	<g>
	</g>
	<g>
	</g>
	<g>
	</g>
	<g>
	</g>
	<g>
	</g>
	<g>
	</g>
</g>
</svg>
